<mxfile host="app.diagrams.net" modified="2024-02-26T01:19:03.046Z" agent="Mozilla/5.0 (Macintosh; Intel Mac OS X 10_15_7) AppleWebKit/537.36 (KHTML, like Gecko) Chrome/122.0.0.0 Safari/537.36" etag="J6D3zLsum4l52rGjmCU5" version="23.1.6" type="github">
  <diagram name="第 1 页" id="Ir7zNrWZztiDGZG7zLIO">
    <mxGraphModel dx="991" dy="561" grid="0" gridSize="10" guides="1" tooltips="1" connect="1" arrows="1" fold="1" page="0" pageScale="1" pageWidth="1700" pageHeight="1100" math="0" shadow="0">
      <root>
        <mxCell id="0" />
        <mxCell id="1" parent="0" />
        <mxCell id="7tttnJRCXwrF364R0TbF-16" value="" style="rounded=0;whiteSpace=wrap;html=1;dashed=1;dashPattern=8 8;" parent="1" vertex="1">
          <mxGeometry x="290" y="427.5" width="470" height="105" as="geometry" />
        </mxCell>
        <mxCell id="7tttnJRCXwrF364R0TbF-14" value="" style="rounded=0;whiteSpace=wrap;html=1;dashed=1;dashPattern=8 8;" parent="1" vertex="1">
          <mxGeometry x="290" y="210" width="470" height="190" as="geometry" />
        </mxCell>
        <mxCell id="7tttnJRCXwrF364R0TbF-13" value="" style="rounded=0;whiteSpace=wrap;html=1;dashed=1;dashPattern=8 8;" parent="1" vertex="1">
          <mxGeometry x="290" y="87.5" width="470" height="105" as="geometry" />
        </mxCell>
        <mxCell id="7tttnJRCXwrF364R0TbF-1" value="Prometheus&lt;br&gt;或者Zabbix" style="rounded=0;whiteSpace=wrap;html=1;fillColor=#dae8fc;strokeColor=#6c8ebf;" parent="1" vertex="1">
          <mxGeometry x="460" y="110" width="120" height="60" as="geometry" />
        </mxCell>
        <mxCell id="7tttnJRCXwrF364R0TbF-2" value="P0指标" style="rounded=0;whiteSpace=wrap;html=1;fillColor=#fff2cc;strokeColor=#d6b656;" parent="1" vertex="1">
          <mxGeometry x="310" y="220" width="120" height="60" as="geometry" />
        </mxCell>
        <mxCell id="7tttnJRCXwrF364R0TbF-3" value="P1指标" style="rounded=0;whiteSpace=wrap;html=1;fillColor=#fff2cc;strokeColor=#d6b656;" parent="1" vertex="1">
          <mxGeometry x="460" y="220" width="120" height="60" as="geometry" />
        </mxCell>
        <mxCell id="7tttnJRCXwrF364R0TbF-4" value="P2指标" style="rounded=0;whiteSpace=wrap;html=1;fillColor=#fff2cc;strokeColor=#d6b656;" parent="1" vertex="1">
          <mxGeometry x="610" y="220" width="120" height="60" as="geometry" />
        </mxCell>
        <mxCell id="7tttnJRCXwrF364R0TbF-6" style="edgeStyle=orthogonalEdgeStyle;rounded=0;orthogonalLoop=1;jettySize=auto;html=1;exitX=0;exitY=0.5;exitDx=0;exitDy=0;entryX=0.5;entryY=1;entryDx=0;entryDy=0;" parent="1" source="7tttnJRCXwrF364R0TbF-5" target="7tttnJRCXwrF364R0TbF-2" edge="1">
          <mxGeometry relative="1" as="geometry" />
        </mxCell>
        <mxCell id="7tttnJRCXwrF364R0TbF-7" style="edgeStyle=orthogonalEdgeStyle;rounded=0;orthogonalLoop=1;jettySize=auto;html=1;exitX=0.5;exitY=0;exitDx=0;exitDy=0;entryX=0.5;entryY=1;entryDx=0;entryDy=0;" parent="1" source="7tttnJRCXwrF364R0TbF-5" target="7tttnJRCXwrF364R0TbF-3" edge="1">
          <mxGeometry relative="1" as="geometry" />
        </mxCell>
        <mxCell id="7tttnJRCXwrF364R0TbF-5" value="梳理定义核心指标" style="rounded=0;whiteSpace=wrap;html=1;fillColor=#fff2cc;strokeColor=#d6b656;" parent="1" vertex="1">
          <mxGeometry x="460" y="320" width="120" height="60" as="geometry" />
        </mxCell>
        <mxCell id="7tttnJRCXwrF364R0TbF-8" style="edgeStyle=orthogonalEdgeStyle;rounded=0;orthogonalLoop=1;jettySize=auto;html=1;exitX=1;exitY=0.5;exitDx=0;exitDy=0;entryX=0.583;entryY=1;entryDx=0;entryDy=0;entryPerimeter=0;" parent="1" source="7tttnJRCXwrF364R0TbF-5" target="7tttnJRCXwrF364R0TbF-4" edge="1">
          <mxGeometry relative="1" as="geometry" />
        </mxCell>
        <mxCell id="7tttnJRCXwrF364R0TbF-9" value="CS" style="rounded=0;whiteSpace=wrap;html=1;fillColor=#dae8fc;strokeColor=#6c8ebf;" parent="1" vertex="1">
          <mxGeometry x="340" y="450" width="80" height="60" as="geometry" />
        </mxCell>
        <mxCell id="7tttnJRCXwrF364R0TbF-10" value="BE" style="rounded=0;whiteSpace=wrap;html=1;fillColor=#dae8fc;strokeColor=#6c8ebf;" parent="1" vertex="1">
          <mxGeometry x="440" y="450" width="80" height="60" as="geometry" />
        </mxCell>
        <mxCell id="7tttnJRCXwrF364R0TbF-11" value="FE" style="rounded=0;whiteSpace=wrap;html=1;fillColor=#dae8fc;strokeColor=#6c8ebf;" parent="1" vertex="1">
          <mxGeometry x="540" y="450" width="80" height="60" as="geometry" />
        </mxCell>
        <mxCell id="7tttnJRCXwrF364R0TbF-12" value="Broker" style="rounded=0;whiteSpace=wrap;html=1;fillColor=#dae8fc;strokeColor=#6c8ebf;" parent="1" vertex="1">
          <mxGeometry x="650" y="450" width="80" height="60" as="geometry" />
        </mxCell>
        <mxCell id="7tttnJRCXwrF364R0TbF-17" value="监控服务" style="text;html=1;strokeColor=none;fillColor=none;align=center;verticalAlign=middle;whiteSpace=wrap;rounded=0;" parent="1" vertex="1">
          <mxGeometry x="220" y="130" width="60" height="30" as="geometry" />
        </mxCell>
        <mxCell id="7tttnJRCXwrF364R0TbF-18" value="监控指标" style="text;html=1;strokeColor=none;fillColor=none;align=center;verticalAlign=middle;whiteSpace=wrap;rounded=0;" parent="1" vertex="1">
          <mxGeometry x="220" y="280" width="60" height="30" as="geometry" />
        </mxCell>
        <mxCell id="7tttnJRCXwrF364R0TbF-19" value="组件监控" style="text;html=1;strokeColor=none;fillColor=none;align=center;verticalAlign=middle;whiteSpace=wrap;rounded=0;" parent="1" vertex="1">
          <mxGeometry x="220" y="460" width="60" height="30" as="geometry" />
        </mxCell>
        <mxCell id="7tttnJRCXwrF364R0TbF-20" value="邮件预警" style="rounded=0;whiteSpace=wrap;html=1;fillColor=#f8cecc;strokeColor=#b85450;" parent="1" vertex="1">
          <mxGeometry x="920" y="280" width="120" height="60" as="geometry" />
        </mxCell>
        <mxCell id="7tttnJRCXwrF364R0TbF-21" value="" style="shape=step;perimeter=stepPerimeter;whiteSpace=wrap;html=1;fixedSize=1;" parent="1" vertex="1">
          <mxGeometry x="800" y="295" width="80" height="30" as="geometry" />
        </mxCell>
        <mxCell id="umCNUXC_ShbjSSr28kjJ-6" value="&lt;font style=&quot;font-size: 19px;&quot;&gt;服务高可用&lt;/font&gt;" style="ellipse;whiteSpace=wrap;html=1;fillColor=#ffe6cc;strokeColor=#d79b00;" vertex="1" parent="1">
          <mxGeometry x="268" y="846" width="228" height="179" as="geometry" />
        </mxCell>
        <mxCell id="umCNUXC_ShbjSSr28kjJ-7" value="&lt;font style=&quot;font-size: 19px;&quot;&gt;链路高可用&lt;/font&gt;" style="ellipse;whiteSpace=wrap;html=1;fillColor=#dae8fc;strokeColor=#6c8ebf;" vertex="1" parent="1">
          <mxGeometry x="870" y="846" width="228" height="179" as="geometry" />
        </mxCell>
        <mxCell id="umCNUXC_ShbjSSr28kjJ-8" value="" style="shape=flexArrow;endArrow=classic;html=1;rounded=0;fillColor=#ffe6cc;strokeColor=#d79b00;" edge="1" parent="1">
          <mxGeometry width="50" height="50" relative="1" as="geometry">
            <mxPoint x="520" y="921" as="sourcePoint" />
            <mxPoint x="851" y="918" as="targetPoint" />
          </mxGeometry>
        </mxCell>
        <mxCell id="umCNUXC_ShbjSSr28kjJ-9" value="" style="shape=flexArrow;endArrow=classic;html=1;rounded=0;fillColor=#dae8fc;strokeColor=#6c8ebf;" edge="1" parent="1">
          <mxGeometry width="50" height="50" relative="1" as="geometry">
            <mxPoint x="841" y="958" as="sourcePoint" />
            <mxPoint x="518" y="962" as="targetPoint" />
          </mxGeometry>
        </mxCell>
        <mxCell id="umCNUXC_ShbjSSr28kjJ-10" value="&lt;div style=&quot;text-align: left;&quot;&gt;&lt;span style=&quot;background-color: initial;&quot;&gt;1.FE：三台FE高可用部署&lt;/span&gt;&lt;/div&gt;2.BE：数据三副本，四台及以上BE，避免节点宕机导致数据不可用&lt;br&gt;3.LB：使用负载均衡绑定三台FE，实现连接数均衡已经读写高可用" style="text;html=1;align=center;verticalAlign=middle;whiteSpace=wrap;rounded=0;" vertex="1" parent="1">
          <mxGeometry x="232" y="1049" width="368" height="72" as="geometry" />
        </mxCell>
        <mxCell id="umCNUXC_ShbjSSr28kjJ-11" value="&lt;div style=&quot;text-align: left;&quot;&gt;&lt;span style=&quot;background-color: initial;&quot;&gt;1.离线/准实时导数链路：&lt;/span&gt;&lt;/div&gt;&lt;div style=&quot;text-align: left;&quot;&gt;&lt;span style=&quot;background-color: initial;&quot;&gt;&lt;span style=&quot;white-space: pre;&quot;&gt;&#x9;&lt;/span&gt;spark load/broker load/select insert into 任务，通过ds调度，可以支持异常自动重试和邮件预警&lt;/span&gt;&lt;/div&gt;&lt;div style=&quot;text-align: left;&quot;&gt;&lt;span style=&quot;background-color: initial;&quot;&gt;2.实时导数链路：&lt;/span&gt;&lt;/div&gt;&lt;div style=&quot;text-align: left;&quot;&gt;&lt;span style=&quot;background-color: initial;&quot;&gt;&lt;span style=&quot;white-space: pre;&quot;&gt;&#x9;&lt;/span&gt;Flink类型的实时进数任务，ds调度以及预警&lt;br&gt;&lt;/span&gt;&lt;/div&gt;" style="text;html=1;align=center;verticalAlign=middle;whiteSpace=wrap;rounded=0;" vertex="1" parent="1">
          <mxGeometry x="805" y="1041" width="380" height="93" as="geometry" />
        </mxCell>
      </root>
    </mxGraphModel>
  </diagram>
</mxfile>
